<?xml version="1.0" encoding="iso-8859-1"?>
<!-- Generator: Adobe Illustrator 19.0.0, SVG Export Plug-In . SVG Version: 6.00 Build 0)  -->
<svg version="1.1" id="Layer_1" xmlns="http://www.w3.org/2000/svg" xmlns:xlink="http://www.w3.org/1999/xlink" x="0px" y="0px"
	 viewBox="0 0 512 512" style="enable-background:new 0 0 512 512;" xml:space="preserve">
<path style="fill:#F5DEB2;" d="M253.804,39.297c-2.591-0.53-201.071-0.341-203.717-0.341C22.468,38.957,0,61.424,0,89.043v367.304
	c0,27.619,22.468,50.087,50.087,50.087h200.348c27.619,0,50.087-22.468,50.087-50.087V89.043
	C300.522,62.578,279.829,41.066,253.804,39.297z"/>
<path style="fill:#D6AB75;" d="M253.804,39.297c-1.31-0.267-52.707-0.352-103.543-0.37v467.507h100.174
	c27.619,0,50.087-22.468,50.087-50.087V89.043C300.522,62.578,279.829,41.066,253.804,39.297z"/>
<path style="fill:#6E6057;" d="M267.13,456.348c0,9.206-7.49,16.696-16.696,16.696H50.087c-9.206,0-16.696-7.49-16.696-16.696
	V89.043c0-9.206,7.49-16.696,16.696-16.696h200.348c9.206,0,16.696,7.49,16.696,16.696V456.348z"/>
<path style="fill:#615349;" d="M250.435,72.348H150.261v400.696h100.174c9.206,0,16.696-7.49,16.696-16.696V89.043
	C267.13,79.837,259.641,72.348,250.435,72.348z"/>
<path style="fill:#EEBE43;" d="M428.522,272.696c-46.032,0-83.478-37.446-83.478-83.478c0-11.592,2.337-22.821,6.934-33.369
	c0-0.006,0-0.006,0-0.006l61.24-140.261c2.664-6.087,8.663-10.016,15.304-10.016s12.641,3.929,15.304,10.016l61.24,140.261
	c4.597,10.554,6.934,21.782,6.934,33.375C512,235.25,474.554,272.696,428.522,272.696z"/>
<path style="fill:#E4A637;" d="M512,189.217c0-11.592-2.337-22.821-6.934-33.375l-61.24-140.261
	c-2.664-6.087-8.663-10.016-15.304-10.016v267.13C474.554,272.696,512,235.25,512,189.217z"/>
<path style="fill:#EFCB99;" d="M428.522,506.435c-9.217,0-16.696-7.473-16.696-16.696V256c0-9.223,7.479-16.696,16.696-16.696
	c9.217,0,16.696,7.473,16.696,16.696v233.739C445.217,498.962,437.739,506.435,428.522,506.435z"/>
<path style="fill:#D6AB75;" d="M445.217,489.739V256c0-9.223-7.479-16.696-16.696-16.696v267.13
	C437.739,506.435,445.217,498.962,445.217,489.739z"/>
<path style="fill:#6E6057;" d="M428.522,272.696c-27.619,0-50.087-22.468-50.087-50.087s22.468-50.087,50.087-50.087
	s50.087,22.468,50.087,50.087S456.141,272.696,428.522,272.696z"/>
<path style="fill:#615349;" d="M478.609,222.609c0-27.619-22.468-50.087-50.087-50.087v100.174
	C456.141,272.696,478.609,250.228,478.609,222.609z"/>
<path style="fill:#EFCB99;" d="M217.043,272.696c-9.217,0-16.696-7.473-16.696-16.696V89.043c0-9.223,7.479-16.696,16.696-16.696
	s16.696,7.473,16.696,16.696V256C233.739,265.223,226.261,272.696,217.043,272.696z"/>
<path style="fill:#D6AB75;" d="M233.739,256V89.043c0-9.223-7.479-16.696-16.696-16.696v200.348
	C226.261,272.696,233.739,265.223,233.739,256z"/>
<path style="fill:#FF5023;" d="M217.043,105.739c-27.619,0-50.087-22.468-50.087-50.087s22.468-50.087,50.087-50.087
	s50.087,22.468,50.087,50.087S244.663,105.739,217.043,105.739z"/>
<path style="fill:#CD2A00;" d="M267.13,55.652c0-27.619-22.468-50.087-50.087-50.087v100.174
	C244.663,105.739,267.13,83.271,267.13,55.652z"/>
<path style="fill:#EFCB99;" d="M150.261,272.696c-9.217,0-16.696-7.473-16.696-16.696v-66.783c0-9.223,7.479-16.696,16.696-16.696
	s16.696,7.473,16.696,16.696V256C166.957,265.223,159.478,272.696,150.261,272.696z"/>
<path style="fill:#D6AB75;" d="M166.957,256v-66.783c0-9.223-7.479-16.696-16.696-16.696v100.174
	C159.478,272.696,166.957,265.223,166.957,256z"/>
<path style="fill:#FF5023;" d="M150.261,205.913c-27.619,0-50.087-22.468-50.087-50.087s22.468-50.087,50.087-50.087
	s50.087,22.468,50.087,50.087S177.88,205.913,150.261,205.913z"/>
<path style="fill:#CD2A00;" d="M200.348,155.826c0-27.619-22.468-50.087-50.087-50.087v100.174
	C177.88,205.913,200.348,183.445,200.348,155.826z"/>
<path style="fill:#EFCB99;" d="M83.478,272.696c-9.217,0-16.696-7.473-16.696-16.696v-66.783c0-9.223,7.479-16.696,16.696-16.696
	s16.696,7.473,16.696,16.696V256C100.174,265.223,92.695,272.696,83.478,272.696z"/>
<path style="fill:#D6AB75;" d="M100.174,256v-66.783c0-9.223-7.479-16.696-16.696-16.696v100.174
	C92.695,272.696,100.174,265.223,100.174,256z"/>
<path style="fill:#FF5023;" d="M250.435,506.435H50.087C22.468,506.435,0,483.967,0,456.348V256c0-9.223,7.479-16.696,16.696-16.696
	h267.13c9.217,0,16.696,7.473,16.696,16.696v200.348C300.522,483.967,278.054,506.435,250.435,506.435z"/>
<path style="fill:#CD2A00;" d="M283.826,239.304H150.261v267.13h100.174c27.619,0,50.087-22.468,50.087-50.087V256
	C300.522,246.777,293.043,239.304,283.826,239.304z"/>
<path style="fill:#EEBE43;" d="M150.261,439.652c-27.619,0-50.087-22.468-50.087-50.087c0-8.593,2.217-17.071,6.402-24.521
	l29.131-51.831c2.956-5.261,8.521-8.516,14.554-8.516l0,0c6.033,0,11.598,3.256,14.554,8.516l29.131,51.842
	c4.185,7.435,6.402,15.913,6.402,24.51C200.348,417.184,177.88,439.652,150.261,439.652z"/>
<path style="fill:#E4A637;" d="M200.348,389.565c0-8.598-2.217-17.076-6.402-24.51l-29.131-51.842
	c-2.956-5.261-8.521-8.516-14.554-8.516v134.955C177.88,439.652,200.348,417.184,200.348,389.565z"/>
<path style="fill:#FF5023;" d="M83.478,205.913c-27.619,0-50.087-22.468-50.087-50.087s22.468-50.087,50.087-50.087
	s50.087,22.468,50.087,50.087S111.097,205.913,83.478,205.913z"/>
<path style="fill:#CD2A00;" d="M133.565,155.826c0-27.619-22.468-50.087-50.087-50.087v100.174
	C111.097,205.913,133.565,183.445,133.565,155.826z"/>
<g>
</g>
<g>
</g>
<g>
</g>
<g>
</g>
<g>
</g>
<g>
</g>
<g>
</g>
<g>
</g>
<g>
</g>
<g>
</g>
<g>
</g>
<g>
</g>
<g>
</g>
<g>
</g>
<g>
</g>
</svg>
