<?xml version="1.0" encoding="iso-8859-1"?>
<!-- Generator: Adobe Illustrator 19.0.0, SVG Export Plug-In . SVG Version: 6.00 Build 0)  -->
<svg version="1.1" id="Layer_1" xmlns="http://www.w3.org/2000/svg" xmlns:xlink="http://www.w3.org/1999/xlink" x="0px" y="0px"
	 viewBox="0 0 503.607 503.607" style="enable-background:new 0 0 503.607 503.607;" xml:space="preserve">
<g transform="translate(1 1)">
	<g>
		<path style="fill:#54C9FD;" d="M61.478,140.849c0,0-33.574,28.538-39.449,65.469C16.992,236.534,53.923,255,75.746,233.177l0,0
			c10.911-10.911,12.59-28.538,2.518-41.128C69.032,178.62,59.799,160.993,61.478,140.849"/>
		<path style="fill:#54C9FD;" d="M158.002,141.689c0,0-33.574,28.538-39.449,65.469c-5.036,30.216,19.305,48.682,41.128,26.859l0,0
			c10.911-10.911,12.59-28.538,2.518-41.128C152.966,180.298,155.484,161.833,158.002,141.689"/>
	</g>
	<g>
		<path style="fill:#33A9F8;" d="M178.986,192.049c-10.072-13.43-19.305-31.056-17.626-51.2c0,0-1.679,1.679-5.036,5.036
			c-1.679,18.466-3.357,35.252,5.036,47.843c9.233,12.59,8.393,30.216-2.518,41.128c-3.357,3.357-7.554,5.875-10.911,7.554
			c9.233,1.679,20.144-0.839,27.698-8.393C187.379,222.266,189.058,204.639,178.986,192.049"/>
		<path style="fill:#33A9F8;" d="M78.264,192.049c-10.072-13.43-19.305-31.056-17.626-51.2c0,0-1.679,1.679-5.036,5.036
			c-1.679,18.466-3.357,35.252,5.036,47.843c9.233,12.59,8.393,30.216-2.518,41.128c-3.357,3.357-7.554,5.875-10.911,7.554
			c9.233,1.679,20.144-0.839,27.698-8.393C86.658,222.266,88.337,204.639,78.264,192.049"/>
	</g>
	<path style="fill:#54C9FD;" d="M99.248,266.751c0,0-33.574,28.538-39.449,65.469c-5.036,30.216,31.895,48.682,53.718,26.859l0,0
		c10.911-10.911,12.59-28.538,2.518-41.128C106.802,304.521,97.569,286.895,99.248,266.751"/>
	<path style="fill:#33A9F8;" d="M116.035,317.951c-10.072-13.429-19.305-31.056-17.626-51.2c0,0-1.679,1.679-5.036,5.036
		c-1.679,18.466-3.357,35.252,5.036,47.843c9.233,12.59,8.393,30.216-2.518,41.128c-3.357,3.357-7.554,5.875-10.911,7.554
		c9.233,1.679,20.144-0.839,27.698-8.393C124.428,348.167,125.268,330.541,116.035,317.951"/>
	<path style="fill:#FCC309;" d="M303.209,91.328h58.754V7.393h-58.754V91.328z"/>
	<g>
		<path style="fill:#FD9808;" d="M361.963,91.328h25.18V7.393h-25.18V91.328z"/>
		<path style="fill:#FD9808;" d="M387.143,7.393v83.934h25.18V24.18c0-9.233-7.554-16.787-16.787-16.787
			C395.537,7.393,387.143,7.393,387.143,7.393z"/>
	</g>
	<path style="fill:#FCC309;" d="M137.858,99.721L137.858,99.721c-11.751,0-19.305-10.911-15.948-20.984
		c9.233-31.056,38.61-54.557,72.184-54.557h109.115v33.574H194.094c-18.466,0-34.413,12.59-40.289,29.377
		C152.127,94.685,145.412,99.721,137.858,99.721"/>
	<path style="fill:#FFDD09;" d="M269.635,124.902h125.902V91.328H269.635V124.902z"/>
	<path style="fill:#FD9808;" d="M395.537,124.902h25.18V91.328h-25.18V124.902z"/>
	<g>
		<path style="fill:#FFDD09;" d="M420.717,91.328v33.574h25.18v-20.144c0-7.554-5.875-13.43-13.43-13.43H420.717z"/>
		<path style="fill:#FFDD09;" d="M227.668,435.459h235.016V200.443H227.668V435.459z"/>
		<path style="fill:#FFDD09;" d="M420.717,494.213H244.455c-9.233,0-16.787-7.554-16.787-16.787V141.689
			c0-9.233,7.554-16.787,16.787-16.787h176.262c9.233,0,16.787,7.554,16.787,16.787v335.738
			C437.504,486.659,429.95,494.213,420.717,494.213"/>
	</g>
	<path style="fill:#FD9808;" d="M445.897,124.902h-25.18c9.233,0,16.787,7.554,16.787,16.787v335.738
		c0,9.233-7.554,16.787-16.787,16.787h25.18c9.233,0,16.787-7.554,16.787-16.787V141.689
		C462.684,132.456,455.13,124.902,445.897,124.902"/>
	<path style="fill:#FFDD09;" d="M471.078,124.902h-25.18c9.233,0,16.787,7.554,16.787,16.787v335.738
		c0,9.233-7.554,16.787-16.787,16.787h25.18c9.233,0,16.787-7.554,16.787-16.787V141.689
		C487.864,132.456,480.31,124.902,471.078,124.902"/>
	<path style="fill:#54C9FD;" d="M319.996,317.951c0-64.63-27.698-117.508-92.328-117.508v235.016
		C292.297,435.459,319.996,383.42,319.996,317.951"/>
	<path style="fill:#33A9F8;" d="M227.668,200.443c64.63,0,92.328,52.879,92.328,117.508s-27.698,117.508-92.328,117.508
		c64.63,0,117.508-52.879,117.508-117.508S292.297,200.443,227.668,200.443"/>
	<path style="fill:#FFFFFF;" d="M244.455,494.213h25.18c-9.233,0-16.787-7.554-16.787-16.787V141.689
		c0-9.233,7.554-16.787,16.787-16.787h-25.18c-9.233,0-16.787,7.554-16.787,16.787v335.738
		C227.668,486.659,235.222,494.213,244.455,494.213"/>
	<path style="fill:#54C9FD;" d="M319.996,200.443h50.361v-75.541h-50.361V200.443z"/>
	<path d="M445.897,502.607H244.455c-14.269,0-25.18-10.911-25.18-25.18V141.689c0-14.269,10.911-25.18,25.18-25.18h201.443
		c14.269,0,25.18,10.911,25.18,25.18v335.738C471.078,491.695,460.166,502.607,445.897,502.607z M244.455,133.295
		c-5.036,0-8.393,3.357-8.393,8.393v335.738c0,5.036,3.357,8.393,8.393,8.393h201.443c5.036,0,8.393-3.357,8.393-8.393V141.689
		c0-5.036-3.357-8.393-8.393-8.393L244.455,133.295L244.455,133.295z"/>
	<path d="M471.078,443.852H219.274V192.049h251.803V443.852z M236.061,427.066h218.229V208.836H236.061V427.066z"/>
	<path d="M227.668,443.852h-8.393V192.049h8.393c69.666,0,125.902,56.236,125.902,125.902S297.333,443.852,227.668,443.852z
		 M236.061,209.675v217.39c56.236-4.197,100.721-51.2,100.721-109.115S292.297,213.872,236.061,209.675z"/>
	<path d="M429.11,133.295H261.241V82.934H429.11V133.295z M278.028,116.508h134.295V99.721H278.028V116.508z"/>
	<path d="M395.537,99.721H294.815V-1h100.721V99.721z M311.602,82.934h67.148V15.787h-67.148V82.934z"/>
	<path d="M137.858,108.115L137.858,108.115c-8.393,0-15.948-3.357-20.144-10.072c-5.036-6.715-5.875-14.269-4.197-21.823
		c10.072-35.252,43.646-60.433,80.577-60.433h117.508v50.361H194.094c-15.108,0-27.698,9.233-31.895,23.502
		C158.841,100.561,148.769,108.115,137.858,108.115z M194.094,32.574c-29.377,0-56.236,20.144-64.63,47.843
		c-0.839,2.518,0,5.036,1.679,7.554c1.679,2.518,4.197,3.357,6.715,3.357l0,0c3.357,0,6.715-2.518,8.393-6.715
		c6.715-20.984,26.02-35.252,47.843-35.252h100.721V32.574C294.815,32.574,194.094,32.574,194.094,32.574z"/>
	<path d="M378.75,208.836h-67.148v-92.328h67.148V208.836z M328.389,192.049h33.574v-58.754h-33.574V192.049z"/>
	<path d="M53.923,250.803c-5.875,0-12.59-1.679-18.466-4.197c-15.948-8.393-24.341-24.341-20.984-41.967
		c5.875-39.449,40.289-68.826,41.967-70.505c2.518-2.518,5.875-2.518,9.233-0.839c3.357,1.679,5.036,5.036,4.197,8.393
		c-1.679,17.626,7.554,34.413,15.948,45.325c11.751,15.948,10.072,37.77-3.357,52.039C74.068,246.607,63.996,250.803,53.923,250.803
		z M54.763,160.154c-9.233,10.911-20.984,28.538-23.502,47.003c-1.679,12.59,5.036,20.144,12.59,24.341
		c7.554,3.357,18.466,4.197,26.859-4.197c8.393-8.393,9.233-20.984,1.679-30.216C63.156,185.334,57.281,172.744,54.763,160.154z"/>
	<path d="M154.645,250.803c-5.875,0-12.59-1.679-18.466-4.197c-15.948-8.393-24.341-24.341-20.984-41.967
		c5.875-39.449,40.289-68.826,41.967-70.505c2.518-2.518,6.715-2.518,9.233-0.839c2.518,1.679,5.036,5.036,4.197,8.393
		c-1.679,17.626,7.554,34.413,15.948,45.325c11.751,15.948,10.072,37.77-3.357,52.039
		C174.789,246.607,164.717,250.803,154.645,250.803z M155.484,160.154c-9.233,10.911-20.984,28.538-23.502,47.003
		c-1.679,12.59,5.036,20.144,12.59,24.341c7.554,3.357,18.466,4.197,26.859-4.197c8.393-8.393,9.233-20.984,1.679-30.216
		C163.878,185.334,158.002,172.744,155.484,160.154z"/>
	<path d="M91.694,376.705c-5.875,0-12.59-1.679-18.466-4.197c-15.948-8.393-24.341-24.341-20.984-41.967
		c5.875-39.449,40.289-68.826,41.967-70.505c2.518-2.518,6.715-2.518,9.233-0.839c3.357,1.679,5.036,5.036,4.197,8.393
		c-1.679,17.626,7.554,34.413,15.948,45.325c11.751,15.948,10.072,37.77-3.357,52.039
		C111.838,372.508,101.766,376.705,91.694,376.705z M92.533,286.056c-9.233,10.911-20.984,28.538-23.502,47.003
		c-1.679,12.59,5.036,20.144,12.59,24.341c7.554,3.357,18.466,4.197,26.859-4.197s9.233-20.984,1.679-30.216
		C100.927,311.236,95.051,298.646,92.533,286.056z"/>
</g>
<g>
</g>
<g>
</g>
<g>
</g>
<g>
</g>
<g>
</g>
<g>
</g>
<g>
</g>
<g>
</g>
<g>
</g>
<g>
</g>
<g>
</g>
<g>
</g>
<g>
</g>
<g>
</g>
<g>
</g>
</svg>
